<svg width="40" height="40" viewBox="0 0 40 40" fill="none" xmlns="http://www.w3.org/2000/svg">
<circle cx="19.6083" cy="19.6083" r="19.1911" fill="#1D1D1D" stroke="#CBD0DC" stroke-width="0.834395"/>
<path d="M20.8072 17.4094H11.6114C11.2836 17.4094 11.0117 17.1376 11.0117 16.8097C11.0117 16.4819 11.2836 16.21 11.6114 16.21H20.8072C21.135 16.21 21.4069 16.4819 21.4069 16.8097C21.4069 17.1376 21.135 17.4094 20.8072 17.4094Z" fill="#D9D9D9"/>
<path d="M16.4099 23.8063H14.8107C14.4828 23.8063 14.2109 23.5344 14.2109 23.2066C14.2109 22.8787 14.4828 22.6069 14.8107 22.6069H16.4099C16.7378 22.6069 17.0096 22.8787 17.0096 23.2066C17.0096 23.5344 16.7378 23.8063 16.4099 23.8063Z" fill="#D9D9D9"/>
<path d="M21.6068 23.8064H18.4083C18.0805 23.8064 17.8086 23.5345 17.8086 23.2067C17.8086 22.8788 18.0805 22.607 18.4083 22.607H21.6068C21.9347 22.607 22.2066 22.8788 22.2066 23.2067C22.2066 23.5345 21.9347 23.8064 21.6068 23.8064Z" fill="#D9D9D9"/>
<path d="M24.0537 27.0051H15.1618C11.9793 27.0051 11.0117 26.0455 11.0117 22.895V16.322C11.0117 13.1715 11.9793 12.2119 15.1618 12.2119H20.8072C21.135 12.2119 21.4069 12.4838 21.4069 12.8117C21.4069 13.1395 21.135 13.4114 20.8072 13.4114H15.1618C12.651 13.4114 12.2112 13.8432 12.2112 16.322V22.887C12.2112 25.3658 12.651 25.7976 15.1618 25.7976H24.0457C26.5565 25.7976 26.9963 25.3658 26.9963 22.887V19.6245C26.9963 19.2967 27.2682 19.0248 27.596 19.0248C27.9239 19.0248 28.1957 19.2967 28.1957 19.6245V22.887C28.2037 26.0455 27.2362 27.0051 24.0537 27.0051Z" fill="#D9D9D9"/>
<path d="M27.6031 15.6101H23.2052C22.8773 15.6101 22.6055 15.3382 22.6055 15.0104C22.6055 14.6825 22.8773 14.4107 23.2052 14.4107H27.6031C27.931 14.4107 28.2029 14.6825 28.2029 15.0104C28.2029 15.3382 27.931 15.6101 27.6031 15.6101Z" fill="#D9D9D9"/>
<path d="M25.4044 17.8091C25.0766 17.8091 24.8047 17.5372 24.8047 17.2094V12.8114C24.8047 12.4836 25.0766 12.2117 25.4044 12.2117C25.7323 12.2117 26.0041 12.4836 26.0041 12.8114V17.2094C26.0041 17.5372 25.7323 17.8091 25.4044 17.8091Z" fill="#D9D9D9"/>
</svg>
