<svg width="20" height="20" viewBox="0 0 20 20" fill="none" xmlns="http://www.w3.org/2000/svg">
<rect width="20" height="20" rx="10" fill="#F09345"/>
<path d="M5.67111 14.7887H14.3242C15.3688 14.7887 15.9013 14.2662 15.9013 13.2317V7.97329C15.9013 6.93872 15.3688 6.42144 14.3242 6.42144H13.149C12.7573 6.42144 12.6369 6.34108 12.4108 6.08994L12.0039 5.63779C11.7579 5.36179 11.5018 5.21094 10.9794 5.21094H8.98054C8.46325 5.21094 8.20696 5.36179 7.95604 5.63779L7.54911 6.08994C7.32818 6.33594 7.20261 6.42144 6.81089 6.42144H5.67089C4.62625 6.42144 4.09375 6.93872 4.09375 7.97329V13.2317C4.09375 14.2662 4.62646 14.7887 5.67111 14.7887ZM9.99518 13.1815C8.47825 13.1815 7.25789 11.9609 7.25789 10.4344C7.25789 8.90737 8.47825 7.68722 9.99496 7.68722C11.5217 7.68722 12.7372 8.90737 12.7372 10.4344C12.7372 11.9609 11.5168 13.1815 9.99496 13.1815M13.6059 9.20865C13.2643 9.20865 12.9832 8.93265 12.9832 8.59108C12.9832 8.42593 13.0488 8.26754 13.1656 8.15075C13.2823 8.03397 13.4407 7.96837 13.6059 7.96837C13.771 7.96837 13.9294 8.03397 14.0462 8.15075C14.163 8.26754 14.2286 8.42593 14.2286 8.59108C14.2286 8.93265 13.9475 9.20865 13.6059 9.20865ZM9.99518 12.4182C10.2558 12.4185 10.5139 12.3674 10.7547 12.2678C10.9956 12.1683 11.2144 12.0221 11.3987 11.8379C11.5829 11.6536 11.7291 11.4348 11.8287 11.1939C11.9282 10.9531 11.9793 10.695 11.979 10.4344C11.9793 10.1738 11.9282 9.91568 11.8286 9.67488C11.729 9.43407 11.5829 9.21527 11.3986 9.03101C11.2143 8.84676 10.9955 8.70066 10.7547 8.60108C10.5139 8.50151 10.2558 8.45041 9.99518 8.45072C8.90018 8.45072 8.01646 9.33465 8.01646 10.4344C8.01646 11.5343 8.90532 12.4182 9.99518 12.4182Z" fill="white"/>
</svg>
