<svg width="24" height="24" viewBox="0 0 24 24" fill="none" xmlns="http://www.w3.org/2000/svg">
<path d="M20 9.7926C20 14.7521 12.5864 18.7665 12.2707 18.9323C12.1875 18.9767 12.0945 18.9999 12 18.9999C11.9055 18.9999 11.8125 18.9767 11.7293 18.9323C11.4136 18.7665 4 14.7521 4 9.7926C4.00132 8.62799 4.46833 7.51145 5.29856 6.68795C6.12879 5.86444 7.25445 5.40122 8.42857 5.3999C9.90357 5.3999 11.195 6.02905 12 7.09251C12.805 6.02905 14.0964 5.3999 15.5714 5.3999C16.7456 5.40122 17.8712 5.86444 18.7014 6.68795C19.5317 7.51145 19.9987 8.62799 20 9.7926Z" fill="#F09345"/>
</svg>
