<svg width="16" height="18" viewBox="0 0 16 18" fill="none" xmlns="http://www.w3.org/2000/svg">
<path d="M14.07 7.2H13V4.5C13 4.5 13 0 8 0C3 0 3 4.5 3 4.5V7.2H1.93C1.41813 7.2 0.927229 7.383 0.565284 7.70876C0.203339 8.03451 0 8.47632 0 8.937V16.272C0.00264321 16.7311 0.207148 17.1706 0.568807 17.4944C0.930466 17.8182 1.41986 18 1.93 18H14.07C14.5819 18 15.0728 17.817 15.4347 17.4912C15.7967 17.1655 16 16.7237 16 16.263V8.937C16 8.47632 15.7967 8.03451 15.4347 7.70876C15.0728 7.383 14.5819 7.2 14.07 7.2ZM8 14.4C7.60444 14.4 7.21776 14.2944 6.88886 14.0966C6.55996 13.8989 6.30362 13.6177 6.15224 13.2888C6.00087 12.9599 5.96126 12.598 6.03843 12.2488C6.1156 11.8997 6.30608 11.5789 6.58579 11.3272C6.86549 11.0755 7.22186 10.904 7.60982 10.8346C7.99778 10.7651 8.39991 10.8008 8.76537 10.937C9.13082 11.0733 9.44318 11.304 9.66294 11.6C9.8827 11.896 10 12.244 10 12.6C10 13.0774 9.78929 13.5352 9.41421 13.8728C9.03914 14.2104 8.53043 14.4 8 14.4ZM11 7.2H5V4.95C5 3.6 5 1.8 8 1.8C11 1.8 11 3.6 11 4.95V7.2Z" fill="#C5C6C7"/>
</svg>
